<?xml version="1.0" standalone="no"?>
<!DOCTYPE svg PUBLIC "-//W3C//DTD SVG 20010904//EN"
 "http://www.w3.org/TR/2001/REC-SVG-20010904/DTD/svg10.dtd">
<svg version="1.0" xmlns="http://www.w3.org/2000/svg"
 width="791.000000pt" height="750.000000pt" viewBox="0 0 791.000000 750.000000"
 preserveAspectRatio="xMidYMid meet">

<g transform="translate(0.000000,750.000000) scale(0.100000,-0.100000)"
fill="#000000" stroke="none">
<path d="M2315 7494 c-16 -2 -73 -9 -125 -15 -434 -49 -895 -244 -1255 -529
-103 -81 -304 -282 -385 -385 -284 -359 -467 -789 -531 -1255 -18 -124 -18
-496 0 -620 38 -279 119 -547 236 -787 l75 -153 -75 -152 c-117 -241 -198
-509 -236 -788 -18 -124 -18 -496 0 -620 64 -466 247 -896 531 -1255 81 -103
282 -304 385 -385 359 -284 789 -467 1255 -531 124 -18 496 -18 620 0 374 52
749 188 1035 375 55 36 105 66 110 66 6 0 55 -30 110 -66 286 -187 661 -323
1035 -375 124 -18 496 -18 620 0 466 64 896 247 1255 531 103 81 304 282 385
385 279 352 456 763 527 1222 23 150 23 536 0 686 -43 281 -114 510 -233 755
l-74 152 74 153 c119 244 190 473 233 754 12 78 17 174 17 343 0 252 -10 348
-60 567 -76 339 -256 711 -484 998 -81 103 -282 304 -385 385 -359 284 -789
467 -1255 531 -124 18 -496 18 -620 0 -374 -52 -749 -188 -1035 -375 -55 -36
-104 -66 -110 -66 -5 0 -55 30 -110 66 -278 182 -641 317 -1000 370 -95 14
-467 27 -530 18z m383 -504 c247 -27 468 -91 687 -200 77 -39 149 -77 159 -85
20 -15 20 -15 0 -39 -10 -13 -48 -59 -83 -102 -102 -125 -217 -307 -296 -469
-114 -234 -181 -444 -225 -709 -21 -128 -21 -144 -21 -1625 -1 -1611 -2 -1557
51 -1806 74 -344 267 -745 491 -1019 35 -43 73 -89 83 -102 20 -24 20 -24 0
-39 -10 -8 -82 -46 -159 -85 -554 -277 -1204 -279 -1760 -6 -873 430 -1311
1406 -1049 2341 28 99 82 245 91 245 3 0 48 -41 101 -91 382 -366 860 -598
1387 -675 130 -19 386 -29 498 -20 l87 8 0 249 0 248 -157 -6 c-501 -19 -983
145 -1364 463 -76 63 -279 270 -279 284 0 14 203 221 279 284 381 318 864 482
1364 463 l157 -6 0 248 0 249 -87 8 c-112 9 -368 -1 -498 -20 -365 -53 -725
-188 -1020 -383 -149 -98 -244 -174 -367 -292 -53 -50 -98 -91 -101 -91 -9 0
-63 146 -91 245 -201 718 7 1475 546 1991 421 402 1007 604 1576 544z m2910 0
c453 -49 862 -238 1186 -550 535 -514 740 -1270 540 -1985 -28 -99 -82 -245
-91 -245 -3 0 -48 41 -101 91 -382 366 -860 598 -1387 675 -130 19 -386 29
-497 20 l-88 -8 0 -249 0 -248 158 6 c494 19 958 -136 1348 -451 77 -62 294
-280 294 -296 0 -14 -202 -220 -279 -284 -381 -318 -863 -482 -1363 -463
l-158 6 0 -248 0 -249 88 -8 c111 -9 367 1 497 20 365 53 725 188 1020 383
149 98 244 174 367 292 53 50 98 91 101 91 9 0 63 -146 91 -245 192 -685 12
-1410 -478 -1923 -609 -636 -1550 -803 -2331 -412 -77 39 -149 77 -159 85 -20
15 -20 15 0 39 10 13 48 59 83 102 221 270 409 656 485 997 57 254 56 196 56
1827 0 1465 -1 1508 -20 1625 -30 174 -57 283 -107 430 -86 251 -251 549 -414
749 -35 43 -73 89 -83 102 -20 24 -20 24 0 39 43 34 306 157 407 190 269 90
567 123 835 95z m-1580 -702 c211 -250 363 -564 433 -893 l24 -110 0 -1535 0
-1535 -24 -110 c-70 -329 -222 -643 -433 -892 -38 -46 -71 -83 -73 -83 -2 0
-35 37 -73 83 -211 249 -363 563 -433 892 l-24 110 0 1535 0 1535 24 110 c70
328 223 643 433 893 38 45 71 82 73 82 2 0 35 -37 73 -82z"/>
</g>
</svg>
