<svg version="1.1" id="Layer_1" xmlns="http://www.w3.org/2000/svg" xmlns:xlink="http://www.w3.org/1999/xlink" x="0px" y="0px"
	 width="100%" viewBox="0 0 1080 1080" enable-background="new 0 0 1080 1080" xml:space="preserve">
<path fill="#000000" opacity="1.000000" stroke="none" 
	d="
M681.000000,1081.000000 
	C454.026123,1081.000000 227.552277,1081.000000 1.039205,1081.000000 
	C1.039205,721.067688 1.039205,361.135345 1.039205,1.101518 
	C360.890747,1.101518 720.781555,1.101518 1080.836182,1.101518 
	C1080.836182,360.999939 1080.836182,720.999939 1080.836182,1081.000000 
	C947.801575,1081.000000 814.650818,1081.000000 681.000000,1081.000000 
M707.929382,837.682434 
	C707.929382,837.682434 708.116394,837.911133 708.116394,837.911133 
	C708.116394,837.911133 707.773315,838.028259 707.945923,837.917725 
	C707.945923,837.917725 707.854675,838.086548 707.854675,838.086548 
	C707.854675,838.086548 707.862000,837.882324 707.929382,837.682434 
M703.945679,840.763977 
	C703.166138,841.419800 702.386536,842.075623 700.911438,842.889404 
	C695.838867,845.195801 690.766235,847.502136 685.693604,849.808533 
	C689.067078,849.489807 692.318726,848.598694 695.343262,847.212158 
	C697.709106,846.127563 699.793396,844.428833 702.676758,843.021179 
	C703.472961,842.367432 704.269165,841.713684 705.670349,840.872253 
	C705.630066,840.508423 705.589844,840.144653 705.549622,839.780823 
	C705.210571,840.020386 704.871521,840.259949 703.945679,840.763977 
M415.037506,855.625366 
	C415.570312,855.700073 416.103088,855.774780 417.214569,855.995361 
	C418.006348,855.958801 418.798126,855.922302 420.440796,856.046265 
	C441.556732,855.374146 462.673340,854.723206 483.788208,854.018494 
	C491.374146,853.765320 499.000519,853.769836 506.520996,852.900269 
	C510.453217,852.445557 514.195862,850.350952 519.131348,848.605347 
	C517.322083,848.195251 516.778625,847.877747 516.395691,848.013306 
	C501.157043,853.410400 485.249969,852.832642 469.471985,853.177673 
	C452.997345,853.537903 436.516266,853.603821 419.226349,853.557617 
	C417.940857,853.518555 416.648621,853.402832 415.376343,853.514221 
	C415.158936,853.533264 415.026642,854.523804 415.037506,855.625366 
M416.007812,251.028091 
	C443.245972,251.028091 470.484100,251.028091 498.490265,251.028091 
	C496.356293,250.602295 494.808044,250.062698 493.245544,250.017746 
	C479.500244,249.622269 465.753906,249.205688 452.004822,249.014816 
	C440.345367,248.852936 428.681366,248.936050 417.021088,249.065308 
	C416.038391,249.076187 415.068726,250.259354 414.020752,251.838593 
	C414.020752,256.035583 414.020752,260.232544 414.020752,264.429535 
	C414.377045,264.430328 414.733307,264.431152 415.089600,264.431946 
	C415.089600,260.006500 415.089600,255.581039 416.007812,251.028091 
M414.273834,532.090027 
	C414.273834,443.497467 414.273834,354.904907 414.273834,266.312347 
	C413.838776,266.310883 413.403687,266.309418 412.968628,266.307953 
	C412.968628,267.916290 412.968384,269.524658 412.968689,271.132996 
	C412.984070,356.930145 412.998749,442.727325 413.021515,528.524475 
	C413.021912,530.020020 413.120422,531.515625 413.009369,533.934326 
	C413.009369,622.148804 413.009369,710.363281 413.009369,798.577820 
	C414.159882,797.153625 414.283630,795.701111 414.283783,794.248535 
	C414.292938,708.486877 414.292999,622.725281 414.280731,536.963623 
	C414.280548,535.641602 414.115540,534.319580 414.273834,532.090027 
M588.377991,854.991882 
	C611.632080,855.046692 634.886108,855.121094 658.140137,855.103516 
	C659.412109,855.102600 660.683472,854.335693 661.955139,853.925354 
	C659.709412,852.818726 657.757935,852.816162 655.806519,852.819153 
	C633.223755,852.853699 610.640991,852.889099 588.007080,851.997681 
	C588.007080,651.754822 588.007080,451.511993 588.007080,252.073975 
	C620.542236,252.073975 652.549133,252.073975 683.925598,252.073975 
	C683.685059,251.958084 682.730591,251.159927 681.710388,251.064285 
	C676.804810,250.604462 671.884521,250.108932 666.963867,250.042923 
	C656.133972,249.897598 645.300659,250.005905 634.468750,250.005630 
	C620.637207,250.005280 606.798157,250.250610 592.978943,249.835373 
	C589.116638,249.719299 586.874756,248.694946 586.878723,254.240570 
	C587.019775,452.714783 586.994690,651.189148 587.038086,849.663513 
	C587.038452,851.178284 587.661499,852.692993 588.377991,854.991882 
M668.754517,518.277405 
	C672.910339,517.548767 675.278137,514.728210 675.892212,510.919617 
	C676.681396,506.025635 677.072998,501.015686 677.078613,496.055054 
	C677.149414,433.604462 677.120850,371.153717 677.110168,308.703033 
	C677.109802,306.538818 677.123474,304.368225 676.973450,302.211548 
	C676.323730,292.872437 672.250183,287.457611 663.006409,286.084656 
	C653.183105,284.625702 643.171936,284.431274 632.897461,283.658691 
	C632.897461,362.456512 632.897461,440.485107 632.897461,518.614624 
	C636.077515,518.614624 639.045837,518.614624 642.931458,518.807617 
	C651.289856,518.586853 659.648315,518.366150 668.754517,518.277405 
M677.107361,610.082642 
	C677.066956,595.454163 677.140625,580.824219 676.941956,566.197876 
	C676.828979,557.878235 673.941223,552.972839 668.104736,552.714111 
	C656.418579,552.196106 644.693359,552.560303 632.911865,552.560303 
	C632.911865,572.544678 632.911865,592.288269 632.664001,612.936829 
	C632.652710,678.628357 632.640259,744.319885 632.641907,810.011414 
	C632.641968,810.997986 632.817993,811.984558 632.640320,813.663330 
	C633.763489,815.718933 629.705383,820.600769 636.931458,819.981140 
	C642.429260,819.934509 647.936646,820.080017 653.423157,819.806396 
	C672.256714,818.867188 677.108582,813.723389 677.110596,794.946472 
	C677.117065,735.292236 677.114197,675.638062 677.104004,615.983826 
	C677.103760,614.323425 676.979370,612.663025 677.107361,610.082642 
M459.030029,347.943542 
	C459.030029,505.187897 459.030029,662.432251 459.030029,819.885132 
	C465.956024,819.885132 472.428284,820.093994 478.882996,819.846191 
	C498.757690,819.083374 503.728607,813.825562 503.728760,793.938171 
	C503.729919,647.466431 503.730194,500.994720 503.720490,354.522980 
	C503.720367,352.696655 503.586548,350.870361 503.761444,348.130371 
	C503.558624,332.155884 503.518463,316.176941 503.082489,300.208832 
	C502.873199,292.543243 498.145172,287.460205 490.966553,286.347565 
	C480.553619,284.733643 469.938171,284.426453 459.163452,283.541779 
	C459.163452,305.456482 459.163452,326.236633 459.030029,347.943542 
M548.994385,514.500000 
	C548.994385,444.503479 548.994385,374.506958 548.994385,304.510437 
	C548.752625,304.511047 548.510803,304.511658 548.269043,304.512268 
	C548.269043,445.123993 548.269043,585.735718 548.269043,726.347412 
	C548.511169,726.347595 548.753235,726.347778 548.995361,726.347961 
	C548.995361,656.065308 548.995361,585.782654 548.994385,514.500000 
M722.001709,797.236389 
	C722.001709,722.137939 722.001709,647.039490 722.001709,571.940979 
	C721.767029,571.941711 721.532288,571.942505 721.297607,571.943237 
	C721.297607,648.640076 721.297607,725.336914 721.297607,802.033752 
	C721.537354,802.039734 721.777100,802.045776 722.016846,802.051819 
	C722.016846,800.751343 722.016846,799.450928 722.001709,797.236389 
M721.002563,448.500000 
	C721.002563,465.360870 721.002563,482.221741 721.002563,499.082611 
	C721.219421,499.080170 721.436218,499.077728 721.653076,499.075287 
	C721.653076,434.092072 721.653076,369.108856 721.653076,304.125641 
	C721.436218,304.125854 721.219421,304.126068 721.002563,304.126312 
	C721.002563,351.917542 721.002563,399.708771 721.002563,448.500000 
M548.944214,792.457825 
	C548.944214,774.225403 548.944214,755.992981 548.944214,737.760498 
	C548.705627,737.763184 548.467041,737.765808 548.228455,737.768433 
	C548.228455,759.091919 548.228455,780.415405 548.228455,801.738953 
	C548.468994,801.742371 548.709595,801.745789 548.950134,801.749207 
	C548.950134,798.980042 548.950134,796.210938 548.944214,792.457825 
M414.015778,833.499512 
	C414.015778,839.742676 414.015778,845.985779 414.015778,852.228943 
	C414.249878,852.221741 414.483948,852.214539 414.718048,852.207336 
	C414.718048,835.012268 414.718048,817.817261 414.718048,800.622192 
	C414.483948,800.621094 414.249878,800.619995 414.015778,800.618896 
	C414.015778,811.245850 414.015778,821.872803 414.015778,833.499512 
M711.133728,834.366760 
	C711.052185,834.366821 710.970581,834.366821 711.133728,834.366760 
z"/>
<path fill="#F5F5F5" opacity="1.000000" stroke="none" 
	d="
M503.515198,349.044037 
	C503.586548,350.870361 503.720367,352.696655 503.720490,354.522980 
	C503.730194,500.994720 503.729919,647.466431 503.728760,793.938171 
	C503.728607,813.825562 498.757690,819.083374 478.882996,819.846191 
	C472.428284,820.093994 465.956024,819.885132 459.030029,819.885132 
	C459.030029,662.432251 459.030029,505.187897 459.431030,347.405029 
	C460.886749,345.050842 461.876923,343.193787 463.009369,341.427979 
	C465.486664,337.565247 467.562378,333.302582 470.661011,330.012115 
	C476.076080,324.261841 482.708984,323.301056 488.843048,328.195374 
	C493.033234,331.538666 495.742249,336.788544 498.934265,341.312439 
	C500.655853,343.752319 502.000488,346.458160 503.515198,349.044037 
z"/>
<path fill="#F5F5F5" opacity="1.000000" stroke="none" 
	d="
M632.911865,812.971130 
	C632.817993,811.984558 632.641968,810.997986 632.641907,810.011414 
	C632.640259,744.319885 632.652710,678.628357 633.106812,612.327576 
	C636.112366,607.333008 638.368103,602.729065 641.303589,598.609436 
	C646.896606,590.760071 657.021912,588.714111 664.403320,594.474182 
	C668.005371,597.285034 670.215637,601.883362 673.041321,605.683472 
	C674.349792,607.443176 675.623413,609.228760 676.912842,611.002625 
	C676.979370,612.663025 677.103760,614.323425 677.104004,615.983826 
	C677.114197,675.638062 677.117065,735.292236 677.110596,794.946472 
	C677.108582,813.723389 672.256714,818.867188 653.423157,819.806396 
	C647.936646,820.080017 642.429260,819.934509 636.459839,819.540649 
	C634.962769,817.057190 633.937317,815.014160 632.911865,812.971130 
z"/>
<path fill="#F5F5F5" opacity="1.000000" stroke="none" 
	d="
M668.006714,518.145386 
	C659.648315,518.366150 651.289856,518.586853 642.411133,518.360535 
	C638.405762,509.176605 636.961487,500.097565 636.973938,490.702728 
	C637.028625,449.402924 636.844421,408.101898 637.137268,366.804108 
	C637.190613,359.277466 638.638794,351.672943 640.217041,344.269379 
	C641.803955,336.825073 649.337463,331.312897 656.188049,332.060883 
	C663.316284,332.839142 667.091919,338.401062 668.657349,344.195618 
	C671.006165,352.890106 672.701843,362.034576 672.815491,371.011261 
	C673.268799,406.809814 672.984436,442.617554 673.011719,478.421875 
	C673.021973,491.880981 672.577637,505.269653 668.006714,518.145386 
z"/>
<path fill="#EFEFEF" opacity="1.000000" stroke="none" 
	d="
M668.380615,518.211426 
	C672.577637,505.269653 673.021973,491.880981 673.011719,478.421875 
	C672.984436,442.617554 673.268799,406.809814 672.815491,371.011261 
	C672.701843,362.034576 671.006165,352.890106 668.657349,344.195618 
	C667.091919,338.401062 663.316284,332.839142 656.188049,332.060883 
	C649.337463,331.312897 641.803955,336.825073 640.217041,344.269379 
	C638.638794,351.672943 637.190613,359.277466 637.137268,366.804108 
	C636.844421,408.101898 637.028625,449.402924 636.973938,490.702728 
	C636.961487,500.097565 638.405762,509.176605 641.952515,518.264038 
	C639.045837,518.614624 636.077515,518.614624 632.897461,518.614624 
	C632.897461,440.485107 632.897461,362.456512 632.897461,283.658691 
	C643.171936,284.431274 653.183105,284.625702 663.006409,286.084656 
	C672.250183,287.457611 676.323730,292.872437 676.973450,302.211548 
	C677.123474,304.368225 677.109802,306.538818 677.110168,308.703033 
	C677.120850,371.153717 677.149414,433.604462 677.078613,496.055054 
	C677.072998,501.015686 676.681396,506.025635 675.892212,510.919617 
	C675.278137,514.728210 672.910339,517.548767 668.380615,518.211426 
z"/>
<path fill="#E1E1E1" opacity="1.000000" stroke="none" 
	d="
M503.638306,348.587219 
	C502.000488,346.458160 500.655853,343.752319 498.934265,341.312439 
	C495.742249,336.788544 493.033234,331.538666 488.843048,328.195374 
	C482.708984,323.301056 476.076080,324.261841 470.661011,330.012115 
	C467.562378,333.302582 465.486664,337.565247 463.009369,341.427979 
	C461.876923,343.193787 460.886749,345.050842 459.497742,346.941681 
	C459.163452,326.236633 459.163452,305.456482 459.163452,283.541779 
	C469.938171,284.426453 480.553619,284.733643 490.966553,286.347565 
	C498.145172,287.460205 502.873199,292.543243 503.082489,300.208832 
	C503.518463,316.176941 503.558624,332.155884 503.638306,348.587219 
z"/>
<path fill="#EFEFEF" opacity="1.000000" stroke="none" 
	d="
M677.010132,610.542603 
	C675.623413,609.228760 674.349792,607.443176 673.041321,605.683472 
	C670.215637,601.883362 668.005371,597.285034 664.403320,594.474182 
	C657.021912,588.714111 646.896606,590.760071 641.303589,598.609436 
	C638.368103,602.729065 636.112366,607.333008 633.230774,611.875122 
	C632.911865,592.288269 632.911865,572.544678 632.911865,552.560303 
	C644.693359,552.560303 656.418579,552.196106 668.104736,552.714111 
	C673.941223,552.972839 676.828979,557.878235 676.941956,566.197876 
	C677.140625,580.824219 677.066956,595.454163 677.010132,610.542603 
z"/>
<path fill="#FDFDFD" opacity="1.000000" stroke="none" 
	d="
M587.993835,854.207703 
	C587.661499,852.692993 587.038452,851.178284 587.038086,849.663513 
	C586.994690,651.189148 587.019775,452.714783 586.878723,254.240570 
	C586.874756,248.694946 589.116638,249.719299 592.978943,249.835373 
	C606.798157,250.250610 620.637207,250.005280 634.468750,250.005630 
	C645.300659,250.005905 656.133972,249.897598 666.963867,250.042923 
	C671.884521,250.108932 676.804810,250.604462 681.710388,251.064285 
	C682.730591,251.159927 683.685059,251.958084 683.925598,252.073975 
	C652.549133,252.073975 620.542236,252.073975 588.007080,252.073975 
	C588.007080,451.511993 588.007080,651.754822 587.955383,852.778748 
	C587.933716,853.775757 587.963745,853.991699 587.993835,854.207703 
z"/>
<path fill="#ABABAB" opacity="1.000000" stroke="none" 
	d="
M548.994873,515.000000 
	C548.995361,585.782654 548.995361,656.065308 548.995361,726.347961 
	C548.753235,726.347778 548.511169,726.347595 548.269043,726.347412 
	C548.269043,585.735718 548.269043,445.123993 548.269043,304.512268 
	C548.510803,304.511658 548.752625,304.511047 548.994385,304.510437 
	C548.994385,374.506958 548.994385,444.503479 548.994873,515.000000 
z"/>
<path fill="#EFEFEF" opacity="1.000000" stroke="none" 
	d="
M413.173157,533.011169 
	C413.120422,531.515625 413.021912,530.020020 413.021515,528.524475 
	C412.998749,442.727325 412.984070,356.930145 412.968689,271.132996 
	C412.968384,269.524658 412.968628,267.916290 412.968628,266.307953 
	C413.403687,266.309418 413.838776,266.310883 414.273834,266.312347 
	C414.273834,354.904907 414.273834,443.497467 413.937195,532.556030 
	C413.600586,533.022034 413.173157,533.011169 413.173157,533.011169 
z"/>
<path fill="#FDFDFD" opacity="1.000000" stroke="none" 
	d="
M413.091248,533.472778 
	C413.173157,533.011169 413.600586,533.022034 413.814026,533.009766 
	C414.115540,534.319580 414.280548,535.641602 414.280731,536.963623 
	C414.292999,622.725281 414.292938,708.486877 414.283783,794.248535 
	C414.283630,795.701111 414.159882,797.153625 413.009369,798.577820 
	C413.009369,710.363281 413.009369,622.148804 413.091248,533.472778 
z"/>
<path fill="#282828" opacity="1.000000" stroke="none" 
	d="
M722.009277,797.693420 
	C722.016846,799.450928 722.016846,800.751343 722.016846,802.051819 
	C721.777100,802.045776 721.537354,802.039734 721.297607,802.033752 
	C721.297607,725.336914 721.297607,648.640076 721.297607,571.943237 
	C721.532288,571.942505 721.767029,571.941711 722.001709,571.940979 
	C722.001709,647.039490 722.001709,722.137939 722.009277,797.693420 
z"/>
<path fill="#282828" opacity="1.000000" stroke="none" 
	d="
M721.002563,448.000000 
	C721.002563,399.708771 721.002563,351.917542 721.002563,304.126312 
	C721.219421,304.126068 721.436218,304.125854 721.653076,304.125641 
	C721.653076,369.108856 721.653076,434.092072 721.653076,499.075287 
	C721.436218,499.077728 721.219421,499.080170 721.002563,499.082611 
	C721.002563,482.221741 721.002563,465.360870 721.002563,448.000000 
z"/>
<path fill="#E1E1E1" opacity="1.000000" stroke="none" 
	d="
M420.038025,853.798462 
	C436.516266,853.603821 452.997345,853.537903 469.471985,853.177673 
	C485.249969,852.832642 501.157043,853.410400 516.395691,848.013306 
	C516.778625,847.877747 517.322083,848.195251 519.131348,848.605347 
	C514.195862,850.350952 510.453217,852.445557 506.520996,852.900269 
	C499.000519,853.769836 491.374146,853.765320 483.788208,854.018494 
	C462.673340,854.723206 441.556732,855.374146 420.153595,855.449829 
	C419.923615,854.501709 419.980835,854.150085 420.038025,853.798462 
z"/>
<path fill="#F5F5F5" opacity="1.000000" stroke="none" 
	d="
M414.092987,250.897903 
	C415.068726,250.259354 416.038391,249.076187 417.021088,249.065308 
	C428.681366,248.936050 440.345367,248.852936 452.004822,249.014816 
	C465.753906,249.205688 479.500244,249.622269 493.245544,250.017746 
	C494.808044,250.062698 496.356293,250.602295 498.490265,251.028091 
	C470.484100,251.028091 443.245972,251.028091 415.301605,251.019531 
	C414.427917,250.973282 414.260437,250.935593 414.092987,250.897903 
z"/>
<path fill="#ABABAB" opacity="1.000000" stroke="none" 
	d="
M588.185913,854.599792 
	C587.963745,853.991699 587.933716,853.775757 587.980957,853.242065 
	C610.640991,852.889099 633.223755,852.853699 655.806519,852.819153 
	C657.757935,852.816162 659.709412,852.818726 661.955139,853.925354 
	C660.683472,854.335693 659.412109,855.102600 658.140137,855.103516 
	C634.886108,855.121094 611.632080,855.046692 588.185913,854.599792 
z"/>
<path fill="#ABABAB" opacity="1.000000" stroke="none" 
	d="
M548.947144,792.949829 
	C548.950134,796.210938 548.950134,798.980042 548.950134,801.749207 
	C548.709595,801.745789 548.468994,801.742371 548.228455,801.738953 
	C548.228455,780.415405 548.228455,759.091919 548.228455,737.768433 
	C548.467041,737.765808 548.705627,737.763184 548.944214,737.760498 
	C548.944214,755.992981 548.944214,774.225403 548.947144,792.949829 
z"/>
<path fill="#616161" opacity="1.000000" stroke="none" 
	d="
M414.015778,832.999634 
	C414.015778,821.872803 414.015778,811.245850 414.015778,800.618896 
	C414.249878,800.619995 414.483948,800.621094 414.718048,800.622192 
	C414.718048,817.817261 414.718048,835.012268 414.718048,852.207336 
	C414.483948,852.214539 414.249878,852.221741 414.015778,852.228943 
	C414.015778,845.985779 414.015778,839.742676 414.015778,832.999634 
z"/>
<path fill="#E1E1E1" opacity="1.000000" stroke="none" 
	d="
M702.002808,843.002930 
	C699.793396,844.428833 697.709106,846.127563 695.343262,847.212158 
	C692.318726,848.598694 689.067078,849.489807 685.693604,849.808533 
	C690.766235,847.502136 695.838867,845.195801 701.361938,842.878052 
	C701.812500,842.866760 702.002808,843.002930 702.002808,843.002930 
z"/>
<path fill="#EFEFEF" opacity="1.000000" stroke="none" 
	d="
M632.776123,813.317261 
	C633.937317,815.014160 634.962769,817.057190 635.996826,819.466370 
	C629.705383,820.600769 633.763489,815.718933 632.776123,813.317261 
z"/>
<path fill="#616161" opacity="1.000000" stroke="none" 
	d="
M414.056885,251.368256 
	C414.260437,250.935593 414.427917,250.973282 414.842499,251.083282 
	C415.089600,255.581039 415.089600,260.006500 415.089600,264.431946 
	C414.733307,264.431152 414.377045,264.430328 414.020752,264.429535 
	C414.020752,260.232544 414.020752,256.035583 414.056885,251.368256 
z"/>
<path fill="#F5F5F5" opacity="1.000000" stroke="none" 
	d="
M419.632202,853.678040 
	C419.980835,854.150085 419.923615,854.501709 419.728149,855.369568 
	C418.798126,855.922302 418.006348,855.958801 416.503723,855.669189 
	C415.480225,855.250549 415.167603,855.158020 414.854980,855.065491 
	C415.026642,854.523804 415.158936,853.533264 415.376343,853.514221 
	C416.648621,853.402832 417.940857,853.518555 419.632202,853.678040 
z"/>
<path fill="#E1E1E1" opacity="1.000000" stroke="none" 
	d="
M705.065369,841.059937 
	C704.269165,841.713684 703.472961,842.367432 702.339783,843.012085 
	C702.002808,843.002930 701.812500,842.866760 701.709717,842.799072 
	C702.386536,842.075623 703.166138,841.419800 704.370239,840.773926 
	C704.794739,840.783813 705.065369,841.059937 705.065369,841.059937 
z"/>
<path fill="#E1E1E1" opacity="1.000000" stroke="none" 
	d="
M711.011353,834.366821 
	C710.970581,834.366821 711.052185,834.366821 711.011353,834.366821 
z"/>
<path fill="#E1E1E1" opacity="1.000000" stroke="none" 
	d="
M707.773315,838.028259 
	C707.773315,838.028259 708.116394,837.911133 708.116394,837.911133 
	C708.116394,837.911133 707.929382,837.682434 707.887085,837.827148 
	C707.844788,837.971802 707.773315,838.028259 707.773315,838.028259 
z"/>
<path fill="#E1E1E1" opacity="1.000000" stroke="none" 
	d="
M707.853394,837.927063 
	C707.862000,837.882324 707.854675,838.086548 707.854675,838.086548 
	C707.854675,838.086548 707.945923,837.917725 707.859619,837.973022 
	C707.773315,838.028259 707.844788,837.971802 707.853394,837.927063 
z"/>
<path fill="#E1E1E1" opacity="1.000000" stroke="none" 
	d="
M704.663574,840.641724 
	C704.871521,840.259949 705.210571,840.020386 705.549622,839.780823 
	C705.589844,840.144653 705.630066,840.508423 705.367859,840.966064 
	C705.065369,841.059937 704.794739,840.783813 704.663574,840.641724 
z"/>
<path fill="#E1E1E1" opacity="1.000000" stroke="none" 
	d="
M414.946228,855.345459 
	C415.167603,855.158020 415.480225,855.250549 416.214386,855.596313 
	C416.103088,855.774780 415.570312,855.700073 414.946228,855.345459 
z"/>
</svg>